<svg xmlns="http://www.w3.org/2000/svg" viewBox="0 0 48 48" aria-hidden="true">
  <path fill="#EA4335" d="M24 9.5c3.2 0 6.1 1.1 8.4 3.2l6.2-6.2C34.8 2.3 29.7 0 24 0 14.6 0 6.6 5.4 2.7 13.2l7.4 5.8C12 13.2 17.6 9.5 24 9.5z"/>
  <path fill="#4285F4" d="M46.5 24.4c0-1.6-.1-2.8-.4-4H24v8h12.7c-.5 2.9-2.2 5.4-4.8 7l7.4 5.8c4.3-3.9 6.9-9.8 6.9-16.8z"/>
  <path fill="#FBBC05" d="M10.1 28.9c-1-2.9-1-6.1 0-9L2.7 13.2C.9 16.8 0 20.3 0 24s.9 7.2 2.7 10.8l7.4-5.9z"/>
  <path fill="#34A853" d="M24 48c5.7 0 10.6-1.9 14.1-5.2l-7.4-5.8c-2 1.4-4.5 2.2-6.7 2.2-6.4 0-11.9-3.7-13.9-9.1l-7.4 5.9C6.6 42.6 14.6 48 24 48z"/>
</svg>
